<svg version="1.1" id="Layer_1" xmlns="http://www.w3.org/2000/svg" xmlns:xlink="http://www.w3.org/1999/xlink" x="0px" y="0px"
	 width="100%" viewBox="0 0 225 225" enable-background="new 0 0 225 225" xml:space="preserve">
<path fill="#FEFEFE" opacity="1.000000" stroke="none" 
	d="
M125.000000,226.000000 
	C83.333336,226.000000 42.166672,226.000000 1.000005,226.000000 
	C1.000004,151.000000 1.000004,76.000015 1.000002,1.000016 
	C75.999992,1.000010 150.999985,1.000010 225.999969,1.000005 
	C225.999985,75.999985 225.999985,150.999969 226.000000,225.999969 
	C192.500000,226.000000 159.000000,226.000000 125.000000,226.000000 
M95.987137,177.193573 
	C95.987137,177.193573 95.900368,177.171265 96.515488,177.679581 
	C99.576866,177.553833 102.638252,177.428101 106.659058,177.273254 
	C115.199814,175.500061 123.788170,173.919266 132.249649,171.825638 
	C134.515762,171.264938 136.394714,169.139603 139.143219,167.366211 
	C140.430542,166.902542 141.717850,166.438873 143.005173,165.975220 
	C142.897812,165.621704 142.790451,165.268204 142.683090,164.914688 
	C140.766205,165.035416 138.849335,165.156128 136.012360,165.144379 
	C128.021515,165.195648 120.030663,165.246918 111.141449,165.048721 
	C79.919731,166.331375 58.725998,147.174255 54.559780,119.966019 
	C51.725571,101.456703 60.648281,79.158409 78.663460,68.704842 
	C86.540123,64.134300 94.817757,60.902931 104.962479,60.752018 
	C116.953041,60.653000 128.943604,60.553982 141.524246,60.770512 
	C141.940201,60.659683 142.356155,60.548855 142.772110,60.438023 
	C142.179779,59.966690 141.587433,59.495358 140.509979,58.551212 
	C139.665939,58.389687 138.821899,58.228161 137.438797,57.625237 
	C136.124802,56.733829 134.882523,55.705444 133.484924,54.973709 
	C125.643898,50.868389 117.467087,48.175411 108.281944,48.504051 
	C103.162041,48.473972 98.042145,48.443893 91.999046,48.336227 
	C72.459488,48.336227 52.919933,48.336227 33.420525,48.336227 
	C33.420525,91.741837 33.420525,134.291977 33.420525,177.330643 
	C54.237549,177.330643 74.819664,177.330643 95.681015,177.409454 
	C95.681015,177.409454 95.901970,177.221390 95.987137,177.193573 
M102.268311,147.080917 
	C91.800049,145.626694 82.500580,141.819824 76.740372,132.470123 
	C69.340759,120.459457 69.030075,107.791550 75.715218,95.452782 
	C82.013657,83.827736 92.686569,78.973351 105.544533,78.826294 
	C121.192635,78.647308 136.844254,78.783150 152.494324,78.757309 
	C153.880905,78.755020 155.267181,78.564651 157.419220,78.404747 
	C154.692749,75.006927 152.678268,72.144844 150.270279,69.664879 
	C149.277573,68.642509 147.442642,67.952728 145.984848,67.942291 
	C131.667953,67.839783 117.343285,67.655006 103.034111,68.017899 
	C91.844749,68.301674 81.876740,72.387886 73.689621,80.119522 
	C60.821957,92.271339 56.788319,113.350838 63.701397,131.035278 
	C69.986633,147.113647 85.472572,157.620804 103.957321,157.993744 
	C115.606995,158.228760 127.315758,157.384583 138.902405,158.272369 
	C147.225708,158.910141 152.497040,156.112076 156.584793,148.534439 
	C155.767700,148.090210 154.951462,147.260361 154.133408,147.258575 
	C137.109802,147.221390 120.085983,147.278122 102.268311,147.080917 
M168.480240,117.856110 
	C168.650009,117.572433 168.819763,117.288750 169.041931,116.091034 
	C169.041931,113.503418 169.041931,110.915802 169.041931,107.610001 
	C143.560074,107.610001 118.879951,107.610001 94.130898,107.610001 
	C94.952156,100.816299 98.557541,98.103424 106.265358,98.087250 
	C127.091896,98.043556 147.918594,98.078362 168.745209,98.059433 
	C170.403748,98.057930 172.062119,97.882538 173.720581,97.787956 
	C173.950958,97.136528 174.181351,96.485100 174.411743,95.833664 
	C170.816086,93.544350 167.281433,89.396217 163.614609,89.275925 
	C143.975937,88.631630 124.297195,88.665947 104.646057,89.095200 
	C84.525047,89.534729 76.873917,109.513573 83.940758,124.101646 
	C88.524727,133.564331 96.810707,136.742844 106.436218,136.890289 
	C124.093063,137.160751 141.765549,136.653748 159.413467,137.134247 
	C165.783401,137.307678 169.826920,135.000946 173.478516,129.485077 
	C172.075912,128.953262 170.675156,127.963737 169.270447,127.958099 
	C147.155975,127.869316 125.040985,127.907150 102.243637,127.765869 
	C97.625092,126.287415 93.994438,123.922134 93.518570,118.013512 
	C118.567307,118.013512 143.280350,118.013512 168.480240,117.856110 
M190.545364,106.166435 
	C183.625183,105.277771 180.075378,106.704056 179.121582,110.972481 
	C178.218735,115.012817 179.672256,118.224724 183.398727,120.019676 
	C187.419250,121.956268 190.924438,120.444412 193.149368,117.034920 
	C195.651672,113.200363 194.714005,109.479828 190.545364,106.166435 
z"/>
<path fill="#262122" opacity="1.000000" stroke="none" 
	d="
M108.431755,49.373806 
	C117.467087,48.175411 125.643898,50.868389 133.484924,54.973709 
	C134.882523,55.705444 136.124802,56.733829 137.407715,58.131744 
	C127.811729,58.756290 118.244972,58.805328 108.683769,59.061535 
	C107.124352,59.103321 105.589462,60.060242 104.043236,60.594185 
	C94.817757,60.902931 86.540123,64.134300 78.663460,68.704842 
	C60.648281,79.158409 51.725571,101.456703 54.559780,119.966019 
	C58.725998,147.174255 79.919731,166.331375 111.715370,165.542236 
	C120.506721,166.035660 128.724152,166.035583 137.270294,166.238342 
	C137.883148,166.871628 138.167267,167.302094 138.451401,167.732544 
	C136.394714,169.139603 134.515762,171.264938 132.249649,171.825638 
	C123.788170,173.919266 115.199814,175.500061 105.774933,177.162949 
	C101.893997,177.092178 98.897179,177.131714 95.900368,177.171265 
	C95.900368,177.171265 95.987137,177.193573 95.946167,177.078522 
	C95.800003,176.807922 95.654526,176.742371 95.098770,176.550842 
	C93.599617,176.195801 92.470451,176.056747 91.036255,175.683594 
	C81.102287,172.085892 71.946465,168.171707 64.033226,161.227615 
	C46.258720,145.630020 39.317261,126.054604 42.641716,103.200195 
	C46.213242,78.647308 60.994083,62.346481 83.521225,52.743088 
	C85.796257,51.773235 88.151199,50.990818 90.867691,50.165527 
	C92.572838,49.961655 93.879349,49.713669 95.429649,49.683189 
	C99.926208,49.725063 104.178978,49.549435 108.431755,49.373806 
z"/>
<path fill="#C7C8CA" opacity="1.000000" stroke="none" 
	d="
M172.928009,129.961594 
	C169.826920,135.000946 165.783401,137.307678 159.413467,137.134247 
	C141.765549,136.653748 124.093063,137.160751 106.436218,136.890289 
	C96.810707,136.742844 88.524727,133.564331 83.940758,124.101646 
	C76.873917,109.513573 84.525047,89.534729 104.646057,89.095200 
	C124.297195,88.665947 143.975937,88.631630 163.614609,89.275925 
	C167.281433,89.396217 170.816086,93.544350 174.411743,95.833664 
	C174.181351,96.485100 173.950958,97.136528 173.720581,97.787956 
	C172.062119,97.882538 170.403748,98.057930 168.745209,98.059433 
	C147.918594,98.078362 127.091896,98.043556 106.265358,98.087250 
	C98.557541,98.103424 94.952156,100.816299 94.130898,107.610001 
	C118.879951,107.610001 143.560074,107.610001 169.041931,107.610001 
	C169.041931,110.915802 169.041931,113.503418 168.796814,116.657501 
	C168.279648,117.426353 168.093536,117.689537 167.993378,118.013512 
	C143.280350,118.013512 118.567307,118.013512 93.518570,118.013512 
	C93.994438,123.922134 97.625092,126.287415 102.881638,128.152100 
	C105.317032,128.692429 107.114212,128.977448 108.911858,128.980469 
	C128.153244,129.012833 147.394806,128.971146 166.635986,129.042786 
	C168.734436,129.050613 170.830719,129.641266 172.928009,129.961594 
z"/>
<path fill="#95979A" opacity="1.000000" stroke="none" 
	d="
M156.066147,149.025574 
	C152.497040,156.112076 147.225708,158.910141 138.902405,158.272369 
	C127.315758,157.384583 115.606995,158.228760 103.957321,157.993744 
	C85.472572,157.620804 69.986633,147.113647 63.701397,131.035278 
	C56.788319,113.350838 60.821957,92.271339 73.689621,80.119522 
	C81.876740,72.387886 91.844749,68.301674 103.034111,68.017899 
	C117.343285,67.655006 131.667953,67.839783 145.984848,67.942291 
	C147.442642,67.952728 149.277573,68.642509 150.270279,69.664879 
	C152.678268,72.144844 154.692749,75.006927 157.419220,78.404747 
	C155.267181,78.564651 153.880905,78.755020 152.494324,78.757309 
	C136.844254,78.783150 121.192635,78.647308 105.544533,78.826294 
	C92.686569,78.973351 82.013657,83.827736 75.715218,95.452782 
	C69.030075,107.791550 69.340759,120.459457 76.740372,132.470123 
	C82.500580,141.819824 91.800049,145.626694 102.776550,147.564789 
	C104.988029,148.366776 106.689964,148.952927 108.394722,148.961304 
	C124.284920,149.039307 140.175598,149.018066 156.066147,149.025574 
z"/>
<path fill="#EB050A" opacity="1.000000" stroke="none" 
	d="
M95.185867,49.465683 
	C93.879349,49.713669 92.572838,49.961655 90.356293,50.129551 
	C72.789276,50.036793 56.131443,50.109200 39.476002,49.942436 
	C35.982841,49.907463 34.916100,50.975853 34.925678,54.481846 
	C35.032177,93.459518 35.025711,132.437653 34.934059,171.415405 
	C34.926174,174.770065 35.745533,176.101547 39.373314,176.062149 
	C56.694450,175.873993 74.018364,175.941254 91.341286,175.917694 
	C92.470451,176.056747 93.599617,176.195801 94.976608,176.679489 
	C95.224442,177.024139 95.401779,177.330643 95.401779,177.330643 
	C74.819664,177.330643 54.237549,177.330643 33.420525,177.330643 
	C33.420525,134.291977 33.420525,91.741837 33.420525,48.336227 
	C52.919933,48.336227 72.459488,48.336227 92.618622,48.577660 
	C93.887413,49.034626 94.536644,49.250153 95.185867,49.465683 
z"/>
<path fill="#ED2129" opacity="1.000000" stroke="none" 
	d="
M190.843933,106.347366 
	C194.714005,109.479828 195.651672,113.200363 193.149368,117.034920 
	C190.924438,120.444412 187.419250,121.956268 183.398727,120.019676 
	C179.672256,118.224724 178.218735,115.012817 179.121582,110.972481 
	C180.075378,106.704056 183.625183,105.277771 190.843933,106.347366 
z"/>
<path fill="#84878A" opacity="1.000000" stroke="none" 
	d="
M156.325470,148.779999 
	C140.175598,149.018066 124.284920,149.039307 108.394722,148.961304 
	C106.689964,148.952927 104.988029,148.366776 103.173500,147.682480 
	C120.085983,147.278122 137.109802,147.221390 154.133408,147.258575 
	C154.951462,147.260361 155.767700,148.090210 156.325470,148.779999 
z"/>
<path fill="#0C0507" opacity="1.000000" stroke="none" 
	d="
M104.502853,60.673103 
	C105.589462,60.060242 107.124352,59.103321 108.683769,59.061535 
	C118.244972,58.805328 127.811729,58.756290 137.677246,58.352448 
	C138.821899,58.228161 139.665939,58.389687 140.724976,59.026386 
	C140.851868,59.818832 140.849930,60.136631 140.934158,60.454960 
	C128.943604,60.553982 116.953041,60.653000 104.502853,60.673103 
z"/>
<path fill="#BEC0C2" opacity="1.000000" stroke="none" 
	d="
M173.203262,129.723328 
	C170.830719,129.641266 168.734436,129.050613 166.635986,129.042786 
	C147.394806,128.971146 128.153244,129.012833 108.911858,128.980469 
	C107.114212,128.977448 105.317032,128.692429 103.222878,128.227127 
	C125.040985,127.907150 147.155975,127.869316 169.270447,127.958099 
	C170.675156,127.963737 172.075912,128.953262 173.203262,129.723328 
z"/>
<path fill="#0B0306" opacity="1.000000" stroke="none" 
	d="
M136.941589,166.035507 
	C128.724152,166.035583 120.506721,166.035660 112.164551,165.666962 
	C120.030663,165.246918 128.021515,165.195648 136.433472,165.400772 
	C136.854568,165.657166 136.941589,166.035507 136.941589,166.035507 
z"/>
<path fill="#EC5F62" opacity="1.000000" stroke="none" 
	d="
M95.429649,49.683189 
	C94.536644,49.250153 93.887413,49.034626 93.080215,48.616455 
	C98.042145,48.443893 103.162041,48.473972 108.356850,48.938927 
	C104.178978,49.549435 99.926208,49.725063 95.429649,49.683189 
z"/>
<path fill="#393637" opacity="1.000000" stroke="none" 
	d="
M137.270294,166.238342 
	C136.941589,166.035507 136.854568,165.657166 136.893509,165.467010 
	C138.849335,165.156128 140.766205,165.035416 142.683090,164.914688 
	C142.790451,165.268204 142.897812,165.621704 143.005173,165.975220 
	C141.717850,166.438873 140.430542,166.902542 138.797302,167.549377 
	C138.167267,167.302094 137.883148,166.871628 137.270294,166.238342 
z"/>
<path fill="#EC5F62" opacity="1.000000" stroke="none" 
	d="
M96.207932,177.425415 
	C98.897179,177.131714 101.893997,177.092178 105.295219,177.177490 
	C102.638252,177.428101 99.576866,177.553833 96.207932,177.425415 
z"/>
<path fill="#262122" opacity="1.000000" stroke="none" 
	d="
M141.229202,60.612736 
	C140.849930,60.136631 140.851868,59.818832 140.967529,59.262791 
	C141.587433,59.495358 142.179779,59.966690 142.772110,60.438026 
	C142.356155,60.548855 141.940201,60.659683 141.229202,60.612736 
z"/>
<path fill="#C0C1C4" opacity="1.000000" stroke="none" 
	d="
M168.236816,117.934814 
	C168.093536,117.689537 168.279648,117.426353 168.770630,117.114517 
	C168.819763,117.288750 168.650009,117.572433 168.236816,117.934814 
z"/>
<path fill="#EC5F62" opacity="1.000000" stroke="none" 
	d="
M95.541397,177.370056 
	C95.401779,177.330643 95.224442,177.024139 95.346603,176.895477 
	C95.654526,176.742371 95.800003,176.807922 95.903580,177.092438 
	C95.901970,177.221390 95.681015,177.409454 95.541397,177.370056 
z"/>
<path fill="#EC1D25" opacity="1.000000" stroke="none" 
	d="
M91.036255,175.683594 
	C74.018364,175.941254 56.694450,175.873993 39.373314,176.062149 
	C35.745533,176.101547 34.926174,174.770065 34.934059,171.415405 
	C35.025711,132.437653 35.032177,93.459518 34.925678,54.481846 
	C34.916100,50.975853 35.982841,49.907463 39.476002,49.942436 
	C56.131443,50.109200 72.789276,50.036793 89.957657,50.085442 
	C88.151199,50.990818 85.796257,51.773235 83.521225,52.743088 
	C60.994083,62.346481 46.213242,78.647308 42.641716,103.200195 
	C39.317261,126.054604 46.258720,145.630020 64.033226,161.227615 
	C71.946465,168.171707 81.102287,172.085892 91.036255,175.683594 
z"/>
</svg>