<svg version="1.1" id="Layer_1" xmlns="http://www.w3.org/2000/svg" xmlns:xlink="http://www.w3.org/1999/xlink" x="0px" y="0px"
	 width="100%" viewBox="0 0 387 187" enable-background="new 0 0 387 187" xml:space="preserve">
<path fill="#FEFEFE" opacity="1.000000" stroke="none" 
	d="
M364.000061,188.000000 
	C242.666733,188.000000 121.833435,188.000000 1.000104,188.000000 
	C1.000069,125.666733 1.000069,63.333462 1.000035,1.000146 
	C129.999893,1.000097 258.999786,1.000097 387.999756,1.000049 
	C387.999847,63.333210 387.999847,125.666420 387.999939,187.999817 
	C380.166687,188.000000 372.333374,188.000000 364.000061,188.000000 
M52.172024,78.015297 
	C40.586876,78.015297 29.001726,78.015297 17.346447,78.015297 
	C17.346447,102.237350 17.346447,126.036591 17.346447,149.820770 
	C29.473280,149.820770 41.255486,149.820770 53.941368,149.920990 
	C62.446358,150.185898 70.514328,148.908401 78.641678,142.972107 
	C71.255318,142.972107 65.154022,142.995789 59.052963,142.967606 
	C41.444939,142.886276 28.761524,130.557983 28.763149,113.550041 
	C28.765057,93.581352 37.397854,85.142807 57.957344,85.032623 
	C62.611786,85.007675 67.266472,85.028473 71.921051,85.028267 
	C73.792870,85.028191 75.664696,85.028252 78.862968,85.028252 
	C70.185562,79.067566 61.905853,77.610031 52.172024,78.015297 
M61.624199,122.017380 
	C57.750305,121.639397 52.959007,123.380043 50.605156,116.969223 
	C65.121284,116.969223 78.833389,116.969223 92.968086,116.969223 
	C92.849678,114.613785 92.764565,112.920494 92.645309,110.548141 
	C78.427414,110.548141 64.788551,110.548141 50.800774,110.548141 
	C52.226772,106.138443 55.187660,105.980515 58.252625,105.982178 
	C69.237740,105.988152 80.222893,105.995064 91.207939,105.967850 
	C92.560768,105.964500 93.913094,105.757393 95.265648,105.644707 
	C95.393333,105.031990 95.521027,104.419281 95.648712,103.806572 
	C92.768288,102.841072 89.914337,101.149193 87.002602,101.043083 
	C77.361855,100.691772 67.700111,100.878380 58.046734,100.923225 
	C49.167248,100.964470 43.921280,105.921547 43.954914,114.129784 
	C43.987511,122.085266 49.212143,127.028908 57.777855,127.074036 
	C67.764053,127.126648 77.753082,126.963181 87.736000,127.151855 
	C91.556999,127.224060 93.811813,125.678284 95.502754,122.017426 
	C84.216118,122.017426 73.404671,122.017426 61.624199,122.017380 
M46.086506,98.388481 
	C51.018833,97.260201 55.907848,95.483780 60.893318,95.150612 
	C69.032814,94.606659 77.235191,95.003639 85.878853,95.003639 
	C82.121506,88.900200 82.121506,88.894081 76.518883,88.892349 
	C70.030571,88.890350 63.539341,88.777054 57.054546,88.930481 
	C42.451641,89.276001 32.200672,99.674477 32.186005,113.995018 
	C32.171215,128.432526 42.259201,138.714920 56.961769,139.067291 
	C63.779015,139.230667 70.619255,138.821777 77.418625,139.208145 
	C81.965576,139.466507 83.919098,137.094070 85.837807,133.032166 
	C76.415672,133.032166 67.499153,133.071686 58.583134,133.021469 
	C48.960621,132.967255 42.365578,128.875809 39.547970,121.329178 
	C36.472176,113.091042 38.539101,105.273369 46.086506,98.388481 
M148.500061,132.759506 
	C142.171829,132.759506 135.843567,132.751770 129.515350,132.761719 
	C123.349701,132.771408 117.184082,132.799210 111.018448,132.819046 
	C111.060120,133.326019 111.101791,133.832993 111.143463,134.339966 
	C198.712585,134.339966 286.281708,134.339966 373.850830,134.339966 
	C373.851074,133.813126 373.851349,133.286301 373.851624,132.759460 
	C299.067780,132.759460 224.283920,132.759460 148.500061,132.759506 
M317.092102,111.807793 
	C319.857422,103.943054 312.833771,101.942307 302.029846,104.076019 
	C302.029846,111.334946 302.029846,118.610603 302.029846,126.262161 
	C305.306732,126.262161 308.537170,126.733841 311.539917,126.109879 
	C313.857147,125.628380 316.892883,124.241852 317.758240,122.391907 
	C318.584747,120.624985 316.949371,117.751137 316.542145,115.339211 
	C316.390625,114.441658 316.652740,113.474251 317.092102,111.807793 
M115.789612,115.187019 
	C114.250694,118.737961 112.711784,122.288895 111.172867,125.839828 
	C111.519379,126.208687 111.865898,126.577545 112.212410,126.946396 
	C113.793732,125.992386 115.274345,124.541306 116.978973,124.195976 
	C119.835892,123.617195 122.904869,123.291702 125.751297,123.728455 
	C127.708008,124.028687 129.439255,125.798370 131.271286,126.911247 
	C131.587265,126.432426 131.903244,125.953613 132.219223,125.474792 
	C128.947495,117.989723 125.675766,110.504646 121.763512,101.554161 
	C119.433304,106.795570 117.729622,110.627716 115.789612,115.187019 
M226.345444,117.389313 
	C226.345535,113.898636 226.166687,110.396278 226.393433,106.920387 
	C226.646790,103.036514 224.899963,102.868866 221.879211,103.948616 
	C221.879211,105.977829 221.879211,107.794624 221.879211,109.893120 
	C220.082626,109.893120 218.419250,109.698837 216.817719,109.931023 
	C212.687805,110.529762 210.083801,114.054916 210.465546,118.654213 
	C210.789307,122.555000 212.117798,126.043564 216.736954,126.287788 
	C219.820297,126.450813 222.939560,125.934166 226.345383,125.700966 
	C226.345383,123.261955 226.345383,120.797073 226.345444,117.389313 
M365.138580,121.056229 
	C367.182587,123.900421 368.393188,128.343735 373.538818,125.524879 
	C371.523407,122.362473 369.592163,119.332108 367.407318,115.903831 
	C369.167480,114.553070 370.731323,113.352951 372.464203,112.023132 
	C367.288544,107.062302 366.607300,115.274971 362.815704,114.311386 
	C362.815704,110.722496 362.815704,107.139183 362.815704,103.555870 
	C362.409973,103.286224 362.004272,103.016579 361.598541,102.746941 
	C360.575073,103.849258 358.715454,104.915504 358.666107,106.059845 
	C358.382507,112.633667 358.528076,119.226006 358.528076,125.916435 
	C360.275940,125.916435 361.628296,125.916435 361.994598,125.916435 
	C363.147247,123.618317 363.964233,121.989502 365.138580,121.056229 
M175.746048,124.656120 
	C179.965164,126.984726 187.026428,126.694069 189.118652,124.804787 
	C189.118652,119.564423 189.118652,115.068214 189.118652,109.487152 
	C184.082565,110.228302 179.504166,109.903618 175.997711,111.686836 
	C172.159943,113.638535 172.362396,118.984322 175.746048,124.656120 
M207.911789,119.472504 
	C207.891342,117.642334 208.454773,115.508865 207.701752,114.059250 
	C206.773666,112.272621 204.876053,110.020714 203.171936,109.812111 
	C199.842941,109.404579 196.357346,110.276375 192.990723,110.613083 
	C192.990723,115.857628 192.990723,120.941406 192.990723,126.257378 
	C194.539597,126.163300 195.791061,126.087280 197.282806,125.996674 
	C197.282806,122.885643 196.976028,120.027298 197.424026,117.292603 
	C197.621033,116.089981 199.354401,115.139046 200.390198,114.073837 
	C201.306992,115.159439 202.843842,116.155815 203.015488,117.348633 
	C203.410217,120.091797 203.140579,122.930565 203.140579,125.993668 
	C204.810638,125.993668 206.218887,125.993668 207.911804,125.993668 
	C207.911804,123.963699 207.911804,122.165817 207.911789,119.472504 
M235.706711,112.591812 
	C235.706711,117.036827 235.706711,121.481842 235.706711,126.300392 
	C237.706314,126.201714 239.269424,126.124573 241.139923,126.032265 
	C241.139923,122.500076 241.139923,119.403694 241.139923,116.238976 
	C243.689468,116.107361 245.913452,115.992546 248.137451,115.877739 
	C248.217438,115.264946 248.297440,114.652153 248.377426,114.039352 
	C246.015625,113.703308 243.653839,113.367256 241.094589,113.003105 
	C241.094589,111.222374 241.094589,109.454155 241.094589,107.554733 
	C243.403107,107.404625 245.514740,107.267319 247.611679,107.130966 
	C247.649399,102.901047 245.958038,102.434380 235.706741,103.862114 
	C235.706741,106.405891 235.706741,109.022690 235.706711,112.591812 
M344.703400,118.620308 
	C344.505402,116.242523 344.906311,113.822151 347.818604,114.302345 
	C348.916107,114.483322 349.948303,116.967705 350.405823,118.574196 
	C350.843842,120.112175 350.486389,121.873619 350.500916,123.536652 
	C350.507721,124.317276 350.567108,125.097435 350.618988,126.236603 
	C352.325897,126.138680 353.682281,126.060860 355.090332,125.980072 
	C355.090332,121.849121 355.593872,118.091545 354.886902,114.577507 
	C354.509308,112.700584 352.220673,110.114380 350.480652,109.840202 
	C347.179321,109.319992 343.652130,110.233040 340.210327,110.551529 
	C340.210327,115.827118 340.210327,120.904091 340.210327,126.319908 
	C341.879333,126.168365 343.271912,126.041916 344.703644,125.911911 
	C344.703644,123.503403 344.703644,121.508865 344.703400,118.620308 
M326.769379,126.337326 
	C330.301697,125.930931 333.834015,125.524544 336.320374,125.238487 
	C336.320374,119.356194 336.320374,114.884560 336.320374,110.473717 
	C329.856262,110.344437 322.815521,106.798965 320.861145,115.913651 
	C319.887024,120.456505 320.784698,124.570412 326.769379,126.337326 
M271.754578,125.536324 
	C274.188721,125.853729 276.913940,126.990303 278.975128,126.257988 
	C281.033813,125.526581 283.323761,123.172783 283.903137,121.083885 
	C284.772217,117.950684 282.088898,116.513924 279.173981,115.964340 
	C278.041840,115.750893 276.947388,115.337418 275.835785,115.015053 
	C275.892029,114.606613 275.948273,114.198181 276.004517,113.789749 
	C278.243866,113.789749 280.483185,113.789749 282.722504,113.789749 
	C282.982605,113.364418 283.242706,112.939079 283.502808,112.513748 
	C282.313049,111.493065 280.917267,109.452339 279.972290,109.643234 
	C277.152679,110.212837 272.919830,110.963287 272.080902,112.884247 
	C268.917603,120.127365 277.326385,118.229225 280.878113,122.064026 
	C277.000366,122.064026 274.276978,122.064026 271.249084,122.064026 
	C271.249084,123.007530 271.249084,123.934578 271.754578,125.536324 
M141.449142,111.624001 
	C141.539932,110.080360 133.948563,107.802811 141.897247,106.936691 
	C142.310028,106.891716 143.022598,105.610428 142.862396,105.173668 
	C142.579956,104.403656 141.812164,103.394821 141.106339,103.267235 
	C137.554199,102.625114 134.424835,103.727333 134.126450,107.619408 
	C133.662872,113.666443 133.931519,119.769615 133.888763,125.994400 
	C135.692291,125.994400 137.088364,125.994400 138.753250,125.994400 
	C138.753250,122.591248 138.486786,119.438988 138.872818,116.368759 
	C139.048996,114.967468 140.512360,113.728012 141.449142,111.624001 
M285.285034,111.587067 
	C285.830719,114.687035 286.120575,117.863373 287.014893,120.859253 
	C287.580139,122.752602 288.859772,124.562271 290.257141,125.976494 
	C290.564484,126.287521 292.727631,124.764839 294.105896,124.050430 
	C290.571136,119.210190 290.632996,115.506248 293.474670,112.130501 
	C292.468170,109.556015 291.600433,107.336479 290.633362,104.862862 
	C289.618317,104.950264 288.359039,105.058701 287.690186,105.116287 
	C286.859558,107.334145 286.207520,109.075020 285.285034,111.587067 
M145.311905,110.045021 
	C144.632050,111.257782 143.448730,112.437492 143.366562,113.689476 
	C143.118454,117.469376 143.289154,121.277451 143.329926,125.074181 
	C143.332825,125.343178 143.606644,125.609276 143.811600,125.980034 
	C145.142517,125.980034 146.526138,125.980034 147.416840,125.980034 
	C149.946640,121.756294 143.357681,112.900826 154.756546,114.486191 
	C154.613083,112.796562 154.494415,111.398682 154.376999,110.015785 
	C151.382797,110.015785 148.753372,110.015785 145.311905,110.045021 
M263.135071,124.814888 
	C264.235535,120.633530 259.385437,112.831985 269.881989,114.460098 
	C269.732574,112.772888 269.609711,111.385201 269.479553,109.915558 
	C265.660034,110.100182 262.261749,110.264442 258.765198,110.433456 
	C258.765198,115.809128 258.765198,120.755020 258.765198,126.329506 
	C260.332520,126.073830 261.673889,125.855019 263.135071,124.814888 
M165.002243,120.954811 
	C166.739746,126.848244 168.015518,127.386017 170.352509,124.930443 
	C170.352509,117.050819 170.352509,110.360023 170.352509,103.209320 
	C167.766922,103.455322 166.411728,103.584251 164.989288,103.719589 
	C164.989288,109.488052 164.989288,114.771088 165.002243,120.954811 
M161.602097,120.294174 
	C161.602097,117.001541 161.602097,113.708908 161.602097,110.045464 
	C159.804077,110.153160 158.419479,110.236099 157.015991,110.320168 
	C157.015991,115.809601 157.015991,120.904198 157.015991,126.337334 
	C158.639618,126.207550 160.039139,126.095680 161.602081,125.970749 
	C161.602081,124.134094 161.602081,122.663887 161.602097,120.294174 
M255.025665,118.447235 
	C255.025665,115.682137 255.025665,112.917046 255.025665,109.793190 
	C252.974899,110.128082 251.590149,110.354210 250.329254,110.560112 
	C250.329254,115.964333 250.329254,120.894630 250.329254,126.056763 
	C251.306335,126.141693 252.109024,126.267929 252.910919,126.263092 
	C253.538742,126.259308 254.165558,126.093117 254.711090,126.011337 
	C254.852722,125.482841 255.001801,125.177162 255.006042,124.869484 
	C255.031174,123.042122 255.022781,121.214310 255.025665,118.447235 
M106.944466,114.363472 
	C105.651413,110.028503 102.780792,108.316734 100.131554,110.563576 
	C99.069160,111.464600 98.162422,113.448769 98.392403,114.721771 
	C98.623779,116.002510 100.540382,118.073418 101.392899,117.925194 
	C103.317078,117.590637 105.040306,116.100311 106.944466,114.363472 
z"/>
<path fill="#E00613" opacity="1.000000" stroke="none" 
	d="
M53.037689,149.820770 
	C41.255486,149.820770 29.473280,149.820770 17.346447,149.820770 
	C17.346447,126.036591 17.346447,102.237350 17.346447,78.015297 
	C29.001726,78.015297 40.586876,78.015297 52.326889,78.306923 
	C38.506321,81.038353 28.658762,88.789467 23.936913,102.139244 
	C19.287462,115.284325 21.885086,127.418030 31.058252,137.994446 
	C36.869507,144.694687 44.574547,147.990173 53.037689,149.820770 
z"/>
<path fill="#0A0707" opacity="1.000000" stroke="none" 
	d="
M53.489529,149.870880 
	C44.574547,147.990173 36.869507,144.694687 31.058252,137.994446 
	C21.885086,127.418030 19.287462,115.284325 23.936913,102.139244 
	C28.658762,88.789467 38.506321,81.038353 52.796051,78.389694 
	C61.905853,77.610031 70.185562,79.067566 78.862968,85.028252 
	C75.664696,85.028252 73.792870,85.028191 71.921051,85.028267 
	C67.266472,85.028473 62.611786,85.007675 57.957344,85.032623 
	C37.397854,85.142807 28.765057,93.581352 28.763149,113.550041 
	C28.761524,130.557983 41.444939,142.886276 59.052963,142.967606 
	C65.154022,142.995789 71.255318,142.972107 78.641678,142.972107 
	C70.514328,148.908401 62.446358,150.185898 53.489529,149.870880 
z"/>
<path fill="#B8B7B7" opacity="1.000000" stroke="none" 
	d="
M62.108711,122.017403 
	C73.404671,122.017426 84.216118,122.017426 95.502754,122.017426 
	C93.811813,125.678284 91.556999,127.224060 87.736000,127.151855 
	C77.753082,126.963181 67.764053,127.126648 57.777855,127.074036 
	C49.212143,127.028908 43.987511,122.085266 43.954914,114.129784 
	C43.921280,105.921547 49.167248,100.964470 58.046734,100.923225 
	C67.700111,100.878380 77.361855,100.691772 87.002602,101.043083 
	C89.914337,101.149193 92.768288,102.841072 95.648712,103.806572 
	C95.521027,104.419281 95.393333,105.031990 95.265648,105.644707 
	C93.913094,105.757393 92.560768,105.964500 91.207939,105.967850 
	C80.222893,105.995064 69.237740,105.988152 58.252625,105.982178 
	C55.187660,105.980515 52.226772,106.138443 50.800774,110.548141 
	C64.788551,110.548141 78.427414,110.548141 92.645309,110.548141 
	C92.764565,112.920494 92.849678,114.613785 92.968086,116.969223 
	C78.833389,116.969223 65.121284,116.969223 50.605156,116.969223 
	C52.959007,123.380043 57.750305,121.639397 62.108711,122.017403 
z"/>
<path fill="#8D8D8C" opacity="1.000000" stroke="none" 
	d="
M45.790123,98.614532 
	C38.539101,105.273369 36.472176,113.091042 39.547970,121.329178 
	C42.365578,128.875809 48.960621,132.967255 58.583134,133.021469 
	C67.499153,133.071686 76.415672,133.032166 85.837807,133.032166 
	C83.919098,137.094070 81.965576,139.466507 77.418625,139.208145 
	C70.619255,138.821777 63.779015,139.230667 56.961769,139.067291 
	C42.259201,138.714920 32.171215,128.432526 32.186005,113.995018 
	C32.200672,99.674477 42.451641,89.276001 57.054546,88.930481 
	C63.539341,88.777054 70.030571,88.890350 76.518883,88.892349 
	C82.121506,88.894081 82.121506,88.900200 85.878853,95.003639 
	C77.235191,95.003639 69.032814,94.606659 60.893318,95.150612 
	C55.907848,95.483780 51.018833,97.260201 45.790123,98.614532 
z"/>
<path fill="#EE1522" opacity="1.000000" stroke="none" 
	d="
M149.000061,132.759491 
	C224.283920,132.759460 299.067780,132.759460 373.851624,132.759460 
	C373.851349,133.286301 373.851074,133.813126 373.850830,134.339966 
	C286.281708,134.339966 198.712585,134.339966 111.143463,134.339966 
	C111.101791,133.832993 111.060120,133.326019 111.018448,132.819046 
	C117.184082,132.799210 123.349701,132.771408 129.515350,132.761719 
	C135.843567,132.751770 142.171829,132.759506 149.000061,132.759491 
z"/>
<path fill="#111111" opacity="1.000000" stroke="none" 
	d="
M316.909180,112.173248 
	C316.652740,113.474251 316.390625,114.441658 316.542145,115.339211 
	C316.949371,117.751137 318.584747,120.624985 317.758240,122.391907 
	C316.892883,124.241852 313.857147,125.628380 311.539917,126.109879 
	C308.537170,126.733841 305.306732,126.262161 302.029846,126.262161 
	C302.029846,118.610603 302.029846,111.334946 302.029846,104.076019 
	C312.833771,101.942307 319.857422,103.943054 316.909180,112.173248 
M310.283081,115.790810 
	C303.896057,115.466782 308.131561,119.924545 306.294312,123.453941 
	C309.498352,122.166176 311.663574,121.806694 312.907867,120.541466 
	C313.397522,120.043617 311.829742,117.522354 310.283081,115.790810 
M310.008453,113.283813 
	C310.850342,111.994209 311.692200,110.704597 312.534088,109.414993 
	C310.927765,108.528885 309.321442,107.642769 307.715088,106.756660 
	C307.199280,107.289452 306.683502,107.822235 306.167694,108.355026 
	C307.159454,110.017830 308.151215,111.680634 310.008453,113.283813 
z"/>
<path fill="#121212" opacity="1.000000" stroke="none" 
	d="
M115.907776,114.823441 
	C117.729622,110.627716 119.433304,106.795570 121.763512,101.554161 
	C125.675766,110.504646 128.947495,117.989723 132.219223,125.474792 
	C131.903244,125.953613 131.587265,126.432426 131.271286,126.911247 
	C129.439255,125.798370 127.708008,124.028687 125.751297,123.728455 
	C122.904869,123.291702 119.835892,123.617195 116.978973,124.195976 
	C115.274345,124.541306 113.793732,125.992386 112.212410,126.946396 
	C111.865898,126.577545 111.519379,126.208687 111.172867,125.839828 
	C112.711784,122.288895 114.250694,118.737961 115.907776,114.823441 
z"/>
<path fill="#090909" opacity="1.000000" stroke="none" 
	d="
M226.345413,117.860748 
	C226.345383,120.797073 226.345383,123.261955 226.345383,125.700966 
	C222.939560,125.934166 219.820297,126.450813 216.736954,126.287788 
	C212.117798,126.043564 210.789307,122.555000 210.465546,118.654213 
	C210.083801,114.054916 212.687805,110.529762 216.817719,109.931023 
	C218.419250,109.698837 220.082626,109.893120 221.879211,109.893120 
	C221.879211,107.794624 221.879211,105.977829 221.879211,103.948616 
	C224.899963,102.868866 226.646790,103.036514 226.393433,106.920387 
	C226.166687,110.396278 226.345535,113.898636 226.345413,117.860748 
M216.013809,121.217087 
	C220.999466,123.531281 222.391693,122.598068 221.796967,116.842712 
	C221.661438,115.531250 219.890320,113.294945 219.091385,113.387054 
	C217.684113,113.549294 215.982590,114.934219 215.282684,116.268105 
	C214.717987,117.344284 215.447510,119.099564 216.013809,121.217087 
z"/>
<path fill="#0D0D0D" opacity="1.000000" stroke="none" 
	d="
M364.959900,120.708458 
	C363.964233,121.989502 363.147247,123.618317 361.994598,125.916435 
	C361.628296,125.916435 360.275940,125.916435 358.528076,125.916435 
	C358.528076,119.226006 358.382507,112.633667 358.666107,106.059845 
	C358.715454,104.915504 360.575073,103.849258 361.598541,102.746941 
	C362.004272,103.016579 362.409973,103.286224 362.815704,103.555870 
	C362.815704,107.139183 362.815704,110.722496 362.815704,114.311386 
	C366.607300,115.274971 367.288544,107.062302 372.464203,112.023132 
	C370.731323,113.352951 369.167480,114.553070 367.407318,115.903831 
	C369.592163,119.332108 371.523407,122.362473 373.538818,125.524879 
	C368.393188,128.343735 367.182587,123.900421 364.959900,120.708458 
z"/>
<path fill="#161616" opacity="1.000000" stroke="none" 
	d="
M175.484848,124.393936 
	C172.362396,118.984322 172.159943,113.638535 175.997711,111.686836 
	C179.504166,109.903618 184.082565,110.228302 189.118652,109.487152 
	C189.118652,115.068214 189.118652,119.564423 189.118652,124.804787 
	C187.026428,126.694069 179.965164,126.984726 175.484848,124.393936 
M178.039810,119.355156 
	C179.500671,120.296524 180.918793,121.326591 182.472549,122.075157 
	C182.684128,122.177086 184.093124,120.839989 184.055176,120.224167 
	C183.922775,118.075150 184.078964,115.364693 182.864136,113.953194 
	C181.032837,111.825394 178.484406,114.161133 178.039810,119.355156 
z"/>
<path fill="#0C0C0C" opacity="1.000000" stroke="none" 
	d="
M207.911804,119.920219 
	C207.911804,122.165817 207.911804,123.963699 207.911804,125.993668 
	C206.218887,125.993668 204.810638,125.993668 203.140579,125.993668 
	C203.140579,122.930565 203.410217,120.091797 203.015488,117.348633 
	C202.843842,116.155815 201.306992,115.159439 200.390198,114.073837 
	C199.354401,115.139046 197.621033,116.089981 197.424026,117.292603 
	C196.976028,120.027298 197.282806,122.885643 197.282806,125.996674 
	C195.791061,126.087280 194.539597,126.163300 192.990723,126.257378 
	C192.990723,120.941406 192.990723,115.857628 192.990723,110.613083 
	C196.357346,110.276375 199.842941,109.404579 203.171936,109.812111 
	C204.876053,110.020714 206.773666,112.272621 207.701752,114.059250 
	C208.454773,115.508865 207.891342,117.642334 207.911804,119.920219 
z"/>
<path fill="#141414" opacity="1.000000" stroke="none" 
	d="
M235.706726,112.115646 
	C235.706741,109.022690 235.706741,106.405891 235.706741,103.862114 
	C245.958038,102.434380 247.649399,102.901047 247.611679,107.130966 
	C245.514740,107.267319 243.403107,107.404625 241.094589,107.554733 
	C241.094589,109.454155 241.094589,111.222374 241.094589,113.003105 
	C243.653839,113.367256 246.015625,113.703308 248.377426,114.039352 
	C248.297440,114.652153 248.217438,115.264946 248.137451,115.877739 
	C245.913452,115.992546 243.689468,116.107361 241.139923,116.238976 
	C241.139923,119.403694 241.139923,122.500076 241.139923,126.032265 
	C239.269424,126.124573 237.706314,126.201714 235.706711,126.300392 
	C235.706711,121.481842 235.706711,117.036827 235.706726,112.115646 
z"/>
<path fill="#0E0E0E" opacity="1.000000" stroke="none" 
	d="
M344.703522,119.067322 
	C344.703644,121.508865 344.703644,123.503403 344.703644,125.911911 
	C343.271912,126.041916 341.879333,126.168365 340.210327,126.319908 
	C340.210327,120.904091 340.210327,115.827118 340.210327,110.551529 
	C343.652130,110.233040 347.179321,109.319992 350.480652,109.840202 
	C352.220673,110.114380 354.509308,112.700584 354.886902,114.577507 
	C355.593872,118.091545 355.090332,121.849121 355.090332,125.980072 
	C353.682281,126.060860 352.325897,126.138680 350.618988,126.236603 
	C350.567108,125.097435 350.507721,124.317276 350.500916,123.536652 
	C350.486389,121.873619 350.843842,120.112175 350.405823,118.574196 
	C349.948303,116.967705 348.916107,114.483322 347.818604,114.302345 
	C344.906311,113.822151 344.505402,116.242523 344.703522,119.067322 
z"/>
<path fill="#0E0E0E" opacity="1.000000" stroke="none" 
	d="
M326.419342,126.266617 
	C320.784698,124.570412 319.887024,120.456505 320.861145,115.913651 
	C322.815521,106.798965 329.856262,110.344437 336.320374,110.473717 
	C336.320374,114.884560 336.320374,119.356194 336.320374,125.238487 
	C333.834015,125.524544 330.301697,125.930931 326.419342,126.266617 
M325.247559,116.084396 
	C326.092346,118.136787 326.864227,120.229500 327.931610,122.158730 
	C328.010071,122.300636 331.244629,121.298676 331.263275,120.767197 
	C331.344055,118.463158 330.775421,116.136353 330.442932,113.817825 
	C328.812775,114.333023 327.182648,114.848221 325.247559,116.084396 
z"/>
<path fill="#141414" opacity="1.000000" stroke="none" 
	d="
M271.501831,125.198975 
	C271.249084,123.934578 271.249084,123.007530 271.249084,122.064026 
	C274.276978,122.064026 277.000366,122.064026 280.878113,122.064026 
	C277.326385,118.229225 268.917603,120.127365 272.080902,112.884247 
	C272.919830,110.963287 277.152679,110.212837 279.972290,109.643234 
	C280.917267,109.452339 282.313049,111.493065 283.502808,112.513748 
	C283.242706,112.939079 282.982605,113.364418 282.722504,113.789749 
	C280.483185,113.789749 278.243866,113.789749 276.004517,113.789749 
	C275.948273,114.198181 275.892029,114.606613 275.835785,115.015053 
	C276.947388,115.337418 278.041840,115.750893 279.173981,115.964340 
	C282.088898,116.513924 284.772217,117.950684 283.903137,121.083885 
	C283.323761,123.172783 281.033813,125.526581 278.975128,126.257988 
	C276.913940,126.990303 274.188721,125.853729 271.501831,125.198975 
z"/>
<path fill="#151515" opacity="1.000000" stroke="none" 
	d="
M141.420532,112.019577 
	C140.512360,113.728012 139.048996,114.967468 138.872818,116.368759 
	C138.486786,119.438988 138.753250,122.591248 138.753250,125.994400 
	C137.088364,125.994400 135.692291,125.994400 133.888763,125.994400 
	C133.931519,119.769615 133.662872,113.666443 134.126450,107.619408 
	C134.424835,103.727333 137.554199,102.625114 141.106339,103.267235 
	C141.812164,103.394821 142.579956,104.403656 142.862396,105.173668 
	C143.022598,105.610428 142.310028,106.891716 141.897247,106.936691 
	C133.948563,107.802811 141.539932,110.080360 141.420532,112.019577 
z"/>
<path fill="#0D0D0D" opacity="1.000000" stroke="none" 
	d="
M285.420288,111.201477 
	C286.207520,109.075020 286.859558,107.334145 287.690186,105.116287 
	C288.359039,105.058701 289.618317,104.950264 290.633362,104.862862 
	C291.600433,107.336479 292.468170,109.556015 293.474670,112.130501 
	C290.632996,115.506248 290.571136,119.210190 294.105896,124.050430 
	C292.727631,124.764839 290.564484,126.287521 290.257141,125.976494 
	C288.859772,124.562271 287.580139,122.752602 287.014893,120.859253 
	C286.120575,117.863373 285.830719,114.687035 285.420288,111.201477 
z"/>
<path fill="#1B1B1B" opacity="1.000000" stroke="none" 
	d="
M145.717926,110.030403 
	C148.753372,110.015785 151.382797,110.015785 154.376999,110.015785 
	C154.494415,111.398682 154.613083,112.796562 154.756546,114.486191 
	C143.357681,112.900826 149.946640,121.756294 147.416840,125.980034 
	C146.526138,125.980034 145.142517,125.980034 143.811600,125.980034 
	C143.606644,125.609276 143.332825,125.343178 143.329926,125.074181 
	C143.289154,121.277451 143.118454,117.469376 143.366562,113.689476 
	C143.448730,112.437492 144.632050,111.257782 145.717926,110.030403 
z"/>
<path fill="#0A0A0A" opacity="1.000000" stroke="none" 
	d="
M263.075165,125.225548 
	C261.673889,125.855019 260.332520,126.073830 258.765198,126.329506 
	C258.765198,120.755020 258.765198,115.809128 258.765198,110.433456 
	C262.261749,110.264442 265.660034,110.100182 269.479553,109.915558 
	C269.609711,111.385201 269.732574,112.772888 269.881989,114.460098 
	C259.385437,112.831985 264.235535,120.633530 263.075165,125.225548 
z"/>
<path fill="#191919" opacity="1.000000" stroke="none" 
	d="
M164.995758,120.504471 
	C164.989288,114.771088 164.989288,109.488052 164.989288,103.719589 
	C166.411728,103.584251 167.766922,103.455322 170.352509,103.209320 
	C170.352509,110.360023 170.352509,117.050819 170.352509,124.930443 
	C168.015518,127.386017 166.739746,126.848244 164.995758,120.504471 
z"/>
<path fill="#1B1B1B" opacity="1.000000" stroke="none" 
	d="
M161.602081,120.743927 
	C161.602081,122.663887 161.602081,124.134094 161.602081,125.970749 
	C160.039139,126.095680 158.639618,126.207550 157.015991,126.337334 
	C157.015991,120.904198 157.015991,115.809601 157.015991,110.320168 
	C158.419479,110.236099 159.804077,110.153160 161.602097,110.045464 
	C161.602097,113.708908 161.602097,117.001541 161.602081,120.743927 
z"/>
<path fill="#141414" opacity="1.000000" stroke="none" 
	d="
M255.025665,118.916939 
	C255.022781,121.214310 255.031174,123.042122 255.006042,124.869484 
	C255.001801,125.177162 254.852722,125.482841 254.711090,126.011337 
	C254.165558,126.093117 253.538742,126.259308 252.910919,126.263092 
	C252.109024,126.267929 251.306335,126.141693 250.329254,126.056763 
	C250.329254,120.894630 250.329254,115.964333 250.329254,110.560112 
	C251.590149,110.354210 252.974899,110.128082 255.025665,109.793190 
	C255.025665,112.917046 255.025665,115.682137 255.025665,118.916939 
z"/>
<path fill="#EA242D" opacity="1.000000" stroke="none" 
	d="
M106.894882,114.721832 
	C105.040306,116.100311 103.317078,117.590637 101.392899,117.925194 
	C100.540382,118.073418 98.623779,116.002510 98.392403,114.721771 
	C98.162422,113.448769 99.069160,111.464600 100.131554,110.563576 
	C102.780792,108.316734 105.651413,110.028503 106.894882,114.721832 
z"/>
<path fill="#F3F3F3" opacity="1.000000" stroke="none" 
	d="
M310.740967,115.856659 
	C311.829742,117.522354 313.397522,120.043617 312.907867,120.541466 
	C311.663574,121.806694 309.498352,122.166176 306.294312,123.453941 
	C308.131561,119.924545 303.896057,115.466782 310.740967,115.856659 
z"/>
<path fill="#E9E9E9" opacity="1.000000" stroke="none" 
	d="
M309.575714,113.313629 
	C308.151215,111.680634 307.159454,110.017830 306.167694,108.355026 
	C306.683502,107.822235 307.199280,107.289452 307.715088,106.756660 
	C309.321442,107.642769 310.927765,108.528885 312.534088,109.414993 
	C311.692200,110.704597 310.850342,111.994209 309.575714,113.313629 
z"/>
<path fill="#E7E7E7" opacity="1.000000" stroke="none" 
	d="
M215.808350,120.885330 
	C215.447510,119.099564 214.717987,117.344284 215.282684,116.268105 
	C215.982590,114.934219 217.684113,113.549294 219.091385,113.387054 
	C219.890320,113.294945 221.661438,115.531250 221.796967,116.842712 
	C222.391693,122.598068 220.999466,123.531281 215.808350,120.885330 
z"/>
<path fill="#F3F3F3" opacity="1.000000" stroke="none" 
	d="
M177.995499,118.940598 
	C178.484406,114.161133 181.032837,111.825394 182.864136,113.953194 
	C184.078964,115.364693 183.922775,118.075150 184.055176,120.224167 
	C184.093124,120.839989 182.684128,122.177086 182.472549,122.075157 
	C180.918793,121.326591 179.500671,120.296524 177.995499,118.940598 
z"/>
<path fill="#E2E2E2" opacity="1.000000" stroke="none" 
	d="
M325.400024,115.723907 
	C327.182648,114.848221 328.812775,114.333023 330.442932,113.817825 
	C330.775421,116.136353 331.344055,118.463158 331.263275,120.767197 
	C331.244629,121.298676 328.010071,122.300636 327.931610,122.158730 
	C326.864227,120.229500 326.092346,118.136787 325.400024,115.723907 
z"/>
</svg>